<svg width="198" height="172" viewBox="0 0 198 172" fill="none" xmlns="http://www.w3.org/2000/svg" xmlns:xlink="http://www.w3.org/1999/xlink">
<path d="M131.924,55.589C134.39,53.551 138.306,53.62 140.673,55.744L169.464,81.585C171.761,83.647 171.761,86.903 169.464,88.966L140.673,114.807C138.306,116.93 134.39,117 131.924,114.962C129.459,112.924 129.378,109.55 131.745,107.426L150.483,90.606L93,90.606C89.583,90.606 86.813,88.22 86.813,85.277C86.813,82.333 89.583,79.947 93,79.947L150.487,79.947L131.745,63.125C129.378,61.001 129.459,57.627 131.924,55.589Z" clip-rule="evenodd" fill-rule="evenodd" transform="rotate(0 129 85.275)" fill="#FFFFFF"/>
<path d="M26.813,28.425C26.813,25.482 29.583,23.096 33,23.096L111,23.096C114.418,23.096 117.187,25.482 117.187,28.425L117.187,49.744C117.187,52.688 114.418,55.074 111,55.074C107.583,55.074 104.812,52.688 104.812,49.744L104.812,33.755L39.188,33.755L39.188,136.797L104.812,136.797L104.812,120.807C104.812,117.864 107.583,115.478 111,115.478C114.418,115.478 117.187,117.864 117.187,120.807L117.187,142.126C117.187,145.07 114.418,147.456 111,147.456L33,147.456C29.583,147.456 26.813,145.07 26.813,142.126L26.813,28.425Z" clip-rule="evenodd" fill-rule="evenodd" transform="rotate(0 72 85.276)" fill="#FFFFFF"/>
</svg>
