<svg width="130" height="118" viewBox="0 0 130 118" fill="none" xmlns="http://www.w3.org/2000/svg" xmlns:xlink="http://www.w3.org/1999/xlink">
<path d="M117.139,13.882L37.91,13.882L37.91,1.686C37.91,0.582 36.482,-0.028 35.517,0.648L9.169,19.106C8.992,19.229 8.848,19.387 8.749,19.567C8.651,19.746 8.599,19.944 8.599,20.144C8.599,20.344 8.651,20.542 8.749,20.721C8.848,20.901 8.992,21.059 9.169,21.182L35.517,39.64C36.482,40.316 37.91,39.706 37.91,38.602L37.91,26.406L114.912,26.406L114.912,103.863L2.471,103.863C1.654,103.863 0.986,104.456 0.986,105.181L0.986,115.069C0.986,115.794 1.654,116.388 2.471,116.388L117.139,116.388C123.689,116.388 129.014,111.658 129.014,105.84L129.014,24.429C129.014,18.611 123.689,13.882 117.139,13.882Z" transform="rotate(0 65 58.376)" fill="#FFFFFF"/>
</svg>
