<svg width="68" height="78" viewBox="0 0 68 78" fill="none" xmlns="http://www.w3.org/2000/svg" xmlns:xlink="http://www.w3.org/1999/xlink">
<path d="M1.106,1.269C2.582,-0.423 4.974,-0.423 6.449,1.269L66.893,70.603C68.369,72.295 68.369,75.038 66.893,76.731C65.418,78.423 63.027,78.423 61.551,76.731L1.106,7.397C-0.369,5.705 -0.369,2.961 1.106,1.269Z" clip-rule="evenodd" fill-rule="evenodd" fill="#FFFFFF"/>
<path d="M66.893,1.269C68.369,2.961 68.369,5.705 66.893,7.397L6.449,76.731C4.974,78.423 2.582,78.423 1.107,76.731C-0.369,75.038 -0.369,72.295 1.106,70.603L61.551,1.269C63.027,-0.423 65.418,-0.423 66.893,1.269Z" clip-rule="evenodd" fill-rule="evenodd" fill="#FFFFFF"/>
</svg>
