# Geometric Butterfly (Triangulated for Unity)
o Butterfly

# ----- Vertices -----
v 270 190 0    # 1
v 280 200 0    # 2
v 280 270 0    # 3
v 270 310 0    # 4
v 260 270 0    # 5
v 260 200 0    # 6

v 280 240 0    # 7
v 340 120 0    # 8
v 480 75 0     # 9
v 425 45 0     # 10
v 460 160 0    # 11
v 410 225 0    # 12
v 445 270 0    # 13
v 355 315 0    # 14
v 295 340 0    # 15
v 415 370 0    # 16
v 330 400 0    # 17
v 350 180 0    # 18

v 260 240 0    # 19
v 200 120 0    # 20
v 60 75 0      # 21
v 115 45 0     # 22
v 190 180 0    # 23
v 80 160 0     # 24
v 130 225 0    # 25
v 95 270 0     # 26
v 185 315 0    # 27
v 245 340 0    # 28
v 125 370 0    # 29
v 210 400 0    # 30

# ----- Faces -----
# --- Center ---
g Center
g Center_Triangle1
f 1 2 3
g Center_Triangle2
f 1 3 4
g Center_Triangle3
f 1 4 5
g Center_Triangle4
f 1 5 6

# --- Right Wing ---
g RightWing
g RightWing_Triangle1
f 7 8 9
g RightWing_Triangle2
f 8 10 9
g RightWing_Triangle3
f 18 9 11
g RightWing_Triangle4
f 18 11 12
g RightWing_Triangle5
f 7 18 12
g RightWing_Triangle6
f 7 12 13
g RightWing_Triangle7
f 7 13 14
g RightWing_Triangle8
f 7 14 15
g RightWing_Triangle9
f 14 13 16
g RightWing_Triangle10
f 15 14 16
g RightWing_Triangle11
f 15 16 17

# --- Left Wing ---
g LeftWing
g LeftWing_Triangle1
f 19 21 20
g LeftWing_Triangle2
f 20 21 22
g LeftWing_Triangle3
f 23 24 21
g LeftWing_Triangle4
f 23 25 24
g LeftWing_Triangle5
f 19 25 23
g LeftWing_Triangle6
f 19 26 25
g LeftWing_Triangle7
f 19 28 27
g LeftWing_Triangle8
f 19 27 26
g LeftWing_Triangle9
f 27 29 26
g LeftWing_Triangle10
f 28 30 29
g LeftWing_Triangle11
f 28 29 27
